<mxfile host="65bd71144e">
    <diagram name="Page-1" id="7RCNwtO-O8vllr10Hq4q">
        <mxGraphModel dx="206" dy="560" grid="1" gridSize="10" guides="1" tooltips="1" connect="1" arrows="1" fold="1" page="1" pageScale="1" pageWidth="827" pageHeight="1169" math="0" shadow="0">
            <root>
                <mxCell id="0"/>
                <mxCell id="1" parent="0"/>
                <mxCell id="WAchZ4MnUJrurM5wpAI8-3" value="" style="rounded=1;whiteSpace=wrap;html=1;" parent="1" vertex="1">
                    <mxGeometry x="220" y="310" width="250" height="520" as="geometry"/>
                </mxCell>
                <mxCell id="WAchZ4MnUJrurM5wpAI8-11" style="edgeStyle=orthogonalEdgeStyle;rounded=0;orthogonalLoop=1;jettySize=auto;html=1;exitX=0.5;exitY=0.5;exitDx=0;exitDy=0;exitPerimeter=0;entryX=0;entryY=0.5;entryDx=0;entryDy=0;endArrow=none;startFill=0;" parent="1" source="WAchZ4MnUJrurM5wpAI8-1" target="WAchZ4MnUJrurM5wpAI8-6" edge="1">
                    <mxGeometry relative="1" as="geometry">
                        <Array as="points">
                            <mxPoint x="180" y="615"/>
                            <mxPoint x="180" y="420"/>
                        </Array>
                    </mxGeometry>
                </mxCell>
                <mxCell id="WAchZ4MnUJrurM5wpAI8-12" style="edgeStyle=orthogonalEdgeStyle;rounded=0;orthogonalLoop=1;jettySize=auto;html=1;exitX=0.5;exitY=0.5;exitDx=0;exitDy=0;exitPerimeter=0;entryX=0;entryY=0.5;entryDx=0;entryDy=0;endArrow=none;startFill=0;" parent="1" source="WAchZ4MnUJrurM5wpAI8-1" target="WAchZ4MnUJrurM5wpAI8-4" edge="1">
                    <mxGeometry relative="1" as="geometry">
                        <Array as="points">
                            <mxPoint x="180" y="615"/>
                            <mxPoint x="180" y="535"/>
                        </Array>
                    </mxGeometry>
                </mxCell>
                <mxCell id="WAchZ4MnUJrurM5wpAI8-13" style="edgeStyle=orthogonalEdgeStyle;rounded=0;orthogonalLoop=1;jettySize=auto;html=1;exitX=0.5;exitY=0.5;exitDx=0;exitDy=0;exitPerimeter=0;endArrow=none;startFill=0;" parent="1" source="WAchZ4MnUJrurM5wpAI8-1" target="WAchZ4MnUJrurM5wpAI8-5" edge="1">
                    <mxGeometry relative="1" as="geometry">
                        <Array as="points">
                            <mxPoint x="180" y="615"/>
                            <mxPoint x="180" y="650"/>
                        </Array>
                    </mxGeometry>
                </mxCell>
                <mxCell id="WAchZ4MnUJrurM5wpAI8-14" style="edgeStyle=orthogonalEdgeStyle;rounded=0;orthogonalLoop=1;jettySize=auto;html=1;exitX=0.5;exitY=0.5;exitDx=0;exitDy=0;exitPerimeter=0;entryX=0;entryY=0.5;entryDx=0;entryDy=0;endArrow=none;startFill=0;" parent="1" source="WAchZ4MnUJrurM5wpAI8-1" target="WAchZ4MnUJrurM5wpAI8-7" edge="1">
                    <mxGeometry relative="1" as="geometry">
                        <Array as="points">
                            <mxPoint x="180" y="615"/>
                            <mxPoint x="180" y="770"/>
                        </Array>
                    </mxGeometry>
                </mxCell>
                <mxCell id="WAchZ4MnUJrurM5wpAI8-1" value="VISITEUR" style="shape=umlActor;verticalLabelPosition=bottom;verticalAlign=top;html=1;outlineConnect=0;" parent="1" vertex="1">
                    <mxGeometry x="120" y="585" width="30" height="60" as="geometry"/>
                </mxCell>
                <mxCell id="WAchZ4MnUJrurM5wpAI8-4" value="&lt;span style=&quot;font-family: &amp;quot;Nunito Sans&amp;quot;, sans-serif; font-size: 14px; text-align: start; white-space-collapse: preserve;&quot;&gt;&lt;font style=&quot;color: rgb(0, 0, 0);&quot;&gt;partager des recettes&lt;/font&gt;&lt;/span&gt;" style="ellipse;whiteSpace=wrap;html=1;fillStyle=auto;" parent="1" vertex="1">
                    <mxGeometry x="289" y="495" width="120" height="80" as="geometry"/>
                </mxCell>
                <mxCell id="WAchZ4MnUJrurM5wpAI8-5" value="&lt;span style=&quot;font-family: &amp;quot;Nunito Sans&amp;quot;, sans-serif; font-size: 14px; text-align: start; white-space-collapse: preserve;&quot;&gt;&lt;font style=&quot;color: rgb(0, 0, 0);&quot;&gt;commenter les publications&lt;/font&gt;&lt;/span&gt;" style="ellipse;whiteSpace=wrap;html=1;fillStyle=auto;" parent="1" vertex="1">
                    <mxGeometry x="290" y="610" width="119" height="80" as="geometry"/>
                </mxCell>
                <mxCell id="WAchZ4MnUJrurM5wpAI8-6" value="&lt;span style=&quot;font-family: &amp;quot;Nunito Sans&amp;quot;, sans-serif; font-size: 14px; text-align: start; white-space-collapse: preserve;&quot;&gt;&lt;font style=&quot;color: rgb(0, 0, 0);&quot;&gt;publier leurs tÃ©moignages&lt;/font&gt;&lt;/span&gt;" style="ellipse;whiteSpace=wrap;html=1;fillStyle=auto;" parent="1" vertex="1">
                    <mxGeometry x="289" y="380" width="120" height="80" as="geometry"/>
                </mxCell>
                <mxCell id="WAchZ4MnUJrurM5wpAI8-7" value="&#xa;Consulter les statistiques&#xa;&#xa;" style="ellipse;whiteSpace=wrap;html=1;fillStyle=auto;" parent="1" vertex="1">
                    <mxGeometry x="294" y="730" width="120" height="80" as="geometry"/>
                </mxCell>
                <mxCell id="WAchZ4MnUJrurM5wpAI8-9" value="&lt;h1 class=&quot;text-2xl font-bold font-arabic&quot; style=&quot;--tw-border-spacing-x: 0; --tw-border-spacing-y: 0; --tw-translate-x: 0; --tw-translate-y: 0; --tw-rotate: 0; --tw-skew-x: 0; --tw-skew-y: 0; --tw-scale-x: 1; --tw-scale-y: 1; --tw-pan-x: ; --tw-pan-y: ; --tw-pinch-zoom: ; --tw-scroll-snap-strictness: proximity; --tw-gradient-from-position: ; --tw-gradient-via-position: ; --tw-gradient-to-position: ; --tw-ordinal: ; --tw-slashed-zero: ; --tw-numeric-figure: ; --tw-numeric-spacing: ; --tw-numeric-fraction: ; --tw-ring-inset: ; --tw-ring-offset-width: 0px; --tw-ring-offset-color: light-dark(#fff, #fff); --tw-ring-color: rgb(59 130 246 / 0.5); --tw-ring-offset-shadow: 0 0 #0000; --tw-ring-shadow: 0 0 #0000; --tw-shadow: 0 0 #0000; --tw-shadow-colored: 0 0 #0000; --tw-blur: ; --tw-brightness: ; --tw-contrast: ; --tw-grayscale: ; --tw-hue-rotate: ; --tw-invert: ; --tw-saturate: ; --tw-sepia: ; --tw-drop-shadow: ; --tw-backdrop-blur: ; --tw-backdrop-brightness: ; --tw-backdrop-contrast: ; --tw-backdrop-grayscale: ; --tw-backdrop-hue-rotate: ; --tw-backdrop-invert: ; --tw-backdrop-opacity: ; --tw-backdrop-saturate: ; --tw-backdrop-sepia: ; --tw-contain-size: ; --tw-contain-layout: ; --tw-contain-paint: ; --tw-contain-style: ; box-sizing: border-box; border-width: 0px; border-style: solid; border-color: rgb(229, 231, 235); margin: 0px; line-height: 2rem; font-family: ui-sans-serif, system-ui, sans-serif, &amp;quot;Apple Color Emoji&amp;quot;, &amp;quot;Segoe UI Emoji&amp;quot;, &amp;quot;Segoe UI Symbol&amp;quot;, &amp;quot;Noto Color Emoji&amp;quot;; text-wrap: wrap;&quot;&gt;&lt;font&gt;Ramadan Community&lt;/font&gt;&lt;/h1&gt;" style="text;html=1;align=center;verticalAlign=middle;resizable=0;points=[];autosize=1;strokeColor=none;fillColor=none;fontColor=default;fontSize=8;labelPosition=center;verticalLabelPosition=middle;" parent="1" vertex="1">
                    <mxGeometry x="250" y="320" width="190" height="50" as="geometry"/>
                </mxCell>
            </root>
        </mxGraphModel>
    </diagram>
</mxfile>